Coordinates
version=1
nRows=14
nColumns=46
inDegrees=yes

Units are S.I. units (second, meters, Newtons, ...)
Angles are in degrees.

endheader
time	pelvis_tilt	pelvis_list	pelvis_rotation	pelvis_tx	pelvis_ty	pelvis_tz	bb_angle	bb_tx	bb_ty	bb_tz	hip_flexion_r	hip_adduction_r	hip_rotation_r	knee_angle_r	knee_angle_r_beta	ankle_angle_r	subtalar_angle_r	mtp_angle_r	crank_angle_r	hip_flexion_l	hip_adduction_l	hip_rotation_l	knee_angle_l	knee_angle_l_beta	ankle_angle_l	subtalar_angle_l	mtp_angle_l	crank_angle_l	lumbar_extension	lumbar_bending	lumbar_rotation	arm_flex_r	arm_add_r	arm_rot_r	elbow_flex_r	pro_sup_r	wrist_flex_r	wrist_dev_r	arm_flex_l	arm_add_l	arm_rot_l	elbow_flex_l	pro_sup_l	wrist_flex_l	wrist_dev_l
      5.00500000	     -6.84562536	      4.44350625	      7.93585110	      0.06110475	      1.17922595	     -0.22697699	      0.00000000	      0.50000000	      0.00000000	      0.25000000	     60.09911790	     -8.91572864	      7.38452042	     92.21428042	      1.60944281	    -34.69559061	     -6.70894525	      0.00000000	      0.00000000	     47.49917487	      3.99375324	      1.34568385	     46.35153760	      0.80898694	      8.86443042	     -1.46009180	      0.00000000	      0.00000000	    -65.93423129	      4.90862740	     -5.95374175	     89.63700304	    -11.38944376	     36.39847949	     45.38250784	     29.90514870	      0.00000000	      0.00000000	     89.78383430	    -13.32099223	     40.44075821	     46.97979472	     26.01679854	      0.00000000	      0.00000000
      5.01000000	     -6.50721640	      3.95673865	      7.37345957	      0.06235941	      1.17910592	     -0.22827034	      0.00000000	      0.50000000	      0.00000000	      0.25000000	     61.03117085	     -8.16458976	      7.50395491	     93.86163987	      1.63819466	    -34.47967672	     -6.72619256	      0.00000000	      0.00000000	     45.59630104	      3.10329624	      1.02153885	     44.15523403	      0.77065422	      8.23954366	     -0.53966945	      0.00000000	      0.00000000	    -65.94029373	      5.08537386	     -5.35172866	     89.64369482	    -11.00313853	     36.86595574	     44.84349783	     29.77471762	      0.00000000	      0.00000000	     89.77547244	    -13.66487602	     41.35336871	     46.25280189	     25.84019751	      0.00000000	      0.00000000
      5.01500000	     -6.27109766	      3.37354160	      6.83788652	      0.06354970	      1.17872131	     -0.22997276	      0.00000000	      0.50000000	      0.00000000	      0.25000000	     62.10994016	     -7.41998195	      7.54299920	     95.48070952	      1.66645275	    -34.18739425	     -6.64190433	      0.00000000	      0.00000000	     43.87697590	      2.15127694	      0.58164625	     42.11260838	      0.73500367	      7.47686560	      0.56582744	      0.00000000	      0.00000000	    -65.86634750	      5.41782754	     -4.67944510	     89.65071577	    -10.59380101	     37.18402732	     44.48770037	     29.67617101	      0.00000000	      0.00000000	     89.76198739	    -13.98877069	     42.07334166	     45.59766108	     25.70625875	      0.00000000	      0.00000000
      5.02000000	     -6.24028639	      2.61480755	      6.47260486	      0.06458166	      1.17800011	     -0.23223599	      0.00000000	      0.50000000	      0.00000000	      0.25000000	     63.40150782	     -6.75291720	      7.36608491	     97.04952821	      1.69383380	    -33.86419433	     -6.60886777	      0.00000000	      0.00000000	     42.44491978	      1.30295297	      0.55086585	     40.19167050	      0.70147698	      6.86463624	      1.16808949	      0.00000000	      0.00000000	    -65.63660829	      6.05380765	     -3.86799454	     89.65843035	    -10.24392579	     37.32419423	     44.46034447	     29.67081270	      0.00000000	      0.00000000	     89.73240873	    -14.28751040	     42.20816512	     45.33395975	     25.66271202	      0.00000000	      0.00000000
      5.02500000	     -5.69605974	      2.17822563	      5.68564266	      0.06599604	      1.17850135	     -0.23348897	      0.00000000	      0.50000000	      0.00000000	      0.25000000	     64.14237576	     -5.81684784	      7.62867328	     98.54306511	      1.71990094	    -33.30936420	     -6.57106783	      0.00000000	      0.00000000	     40.26301478	      0.20192990	     -0.47800895	     38.14363005	      0.66573193	      6.22147680	      2.76679050	      0.00000000	      0.00000000	    -65.85890122	      6.11811511	     -3.25174313	     89.66465495	     -9.61871241	     37.70286633	     43.68115625	     29.47233309	      0.00000000	      0.00000000	     89.73206972	    -14.58216806	     43.59796775	     44.07800805	     25.49217877	      0.00000000	      0.00000000
      5.03000000	     -5.38909965	      1.50184075	      5.06113803	      0.06731842	      1.17858855	     -0.23505149	      0.00000000	      0.50000000	      0.00000000	      0.25000000	     65.11909007	     -4.88223692	      7.61492558	     99.92836230	      1.74407894	    -32.80590831	     -6.24599074	      0.00000000	      0.00000000	     38.44358919	     -0.96735987	     -1.41161204	     36.16837990	      0.63125731	      5.36689835	      5.43961790	      0.00000000	      0.00000000	    -65.91212086	      6.52674028	     -2.47383948	     89.67440529	     -8.98282325	     37.94845903	     43.22307762	     29.33638300	      0.00000000	      0.00000000	     89.71364362	    -14.91985194	     44.43804764	     43.24942392	     25.39941288	      0.00000000	      0.00000000
      5.03500000	     -5.42546319	      0.70015959	      4.70527253	      0.06828471	      1.17803671	     -0.23730440	      0.00000000	      0.50000000	      0.00000000	      0.25000000	     66.50063702	     -4.21059266	      7.35533236	    101.27229700	      1.76753502	    -32.30808263	     -6.27603321	      0.00000000	      0.00000000	     37.13799477	     -1.85360298	     -1.61054185	     34.47689376	      0.60173531	      4.69662702	      6.04115279	      0.00000000	      0.00000000	    -65.70722999	      7.26456078	     -1.65439987	     89.68067237	     -8.52116890	     38.07831850	     43.17776106	     29.32265646	      0.00000000	      0.00000000	     89.67910288	    -15.17288715	     44.58533402	     42.95713677	     25.36567280	      0.00000000	      0.00000000
      5.04000000	     -4.92092066	      0.13375921	      3.98620453	      0.06962150	      1.17886531	     -0.23883148	      0.00000000	      0.50000000	      0.00000000	      0.25000000	     67.23383205	     -3.34052287	      7.38621889	    102.52092673	      1.78932772	    -31.38850113	     -5.86330086	      0.00000000	      0.00000000	     35.09909387	     -2.94324793	     -2.61460782	     32.78282335	      0.57216821	      3.95068159	      6.43248453	      0.00000000	      0.00000000	    -65.93879453	      7.49245698	     -1.06779706	     89.69331020	     -7.65138078	     38.32507014	     42.38564940	     29.08467793	      0.00000000	      0.00000000	     89.66878291	    -15.41509337	     45.82473323	     41.56064116	     25.20354434	      0.00000000	      0.00000000
      5.04500000	     -4.65301390	     -0.48399062	      3.41351794	      0.07077871	      1.17929020	     -0.24054457	      0.00000000	      0.50000000	      0.00000000	      0.25000000	     68.21926521	     -2.49598307	      7.40120972	    103.64203754	      1.80889480	    -30.70643899	     -5.47268036	      0.00000000	      0.00000000	     33.40878105	     -3.92923533	     -3.59896531	     31.20692376	      0.54466357	      3.28322259	      7.83610102	      0.00000000	      0.00000000	    -65.99539577	      7.97390829	     -0.40307694	     89.70399585	     -6.78592341	     38.44314431	     41.62117138	     28.79547314	      0.00000000	      0.00000000	     89.65600274	    -15.67825856	     46.95469778	     40.40507511	     25.13941875	      0.00000000	      0.00000000
      5.05000000	     -4.45789918	     -1.12946036	      2.86912021	      0.07185815	      1.17975150	     -0.24228828	      0.00000000	      0.50000000	      0.00000000	      0.25000000	     69.25326352	     -1.71953088	      7.28525905	    104.69582732	      1.82728690	    -29.91555521	     -5.22291418	      0.00000000	      0.00000000	     31.83775708	     -4.85955073	     -4.46493610	     29.73934225	      0.51904944	      2.55849050	      8.85565353	      0.00000000	      0.00000000	    -66.06137092	      8.45778451	      0.21391648	     89.71137652	     -5.90019169	     38.43617329	     41.12764887	     28.56047531	      0.00000000	      0.00000000	     89.63139713	    -15.91431167	     47.69289249	     39.43987974	     25.09435370	      0.00000000	      0.00000000
      5.05500000	     -4.51859894	     -1.77679172	      2.54515037	      0.07268911	      1.17971156	     -0.24452605	      0.00000000	      0.50000000	      0.00000000	      0.25000000	     70.55342428	     -1.19941687	      7.07478554	    105.65730978	      1.84406793	    -29.29902381	     -5.20244816	      0.00000000	      0.00000000	     30.69825411	     -5.54766655	     -4.97580153	     28.51776034	      0.49772881	      1.96394614	      9.23297493	      0.00000000	      0.00000000	    -65.93509623	      9.16848738	      0.84552566	     89.71895297	     -5.36343687	     38.53263331	     41.16843371	     28.54651203	      0.00000000	      0.00000000	     89.57399338	    -16.10044257	     47.80190091	     39.12280672	     25.06795408	      0.00000000	      0.00000000
      5.06000000	     -4.10267731	     -2.22308227	      1.78634708	      0.07378023	      1.18080967	     -0.24572431	      0.00000000	      0.50000000	      0.00000000	      0.25000000	     71.27852610	     -0.29743229	      7.18098776	    106.51224520	      1.85898937	    -28.19063831	     -4.63508441	      0.00000000	      0.00000000	     28.89220742	     -6.44745330	     -6.43421276	     27.24348627	      0.47548854	      1.09371232	     10.56143462	      0.00000000	      0.00000000	    -66.27272221	      9.30142135	      1.23019533	     89.72850397	     -4.40726279	     38.59112940	     40.63255614	     28.30526821	      0.00000000	      0.00000000	     89.56396234	    -16.28714148	     48.82843120	     37.77296421	     24.96903267	      0.00000000	      0.00000000
      5.06500000	     -4.11388875	     -2.72294719	      1.18322034	      0.07467083	      1.18119229	     -0.24718469	      0.00000000	      0.50000000	      0.00000000	      0.25000000	     72.45720836	      0.42662255	      7.12449859	    107.26469747	      1.87212214	    -27.32565336	     -4.43209811	      0.00000000	      0.00000000	     27.72870865	     -7.18744226	     -7.38577538	     26.27968221	      0.45866698	      0.48759822	     11.35356739	      0.00000000	      0.00000000	    -66.15649817	      9.65502220	      1.67466383	     89.73752842	     -3.36988108	     38.37663944	     39.85263057	     27.65288671	      0.00000000	      0.00000000	     89.55654095	    -16.59506208	     49.98688066	     36.48035661	     25.15590241	      0.00000000	      0.00000000
      5.07000000	     -4.21444658	     -3.24568304	      0.74838397	      0.07515916	      1.18158975	     -0.24894106	      0.00000000	      0.50000000	      0.00000000	      0.25000000	     73.67848230	      0.94262792	      6.91777033	    107.87577104	      1.88278739	    -26.44714051	     -4.50050321	      0.00000000	      0.00000000	     26.78617102	     -7.74590237	     -7.76495377	     25.45105182	      0.44420465	     -0.22139044	     11.48618612	      0.00000000	      0.00000000	    -66.12664122	     10.08973878	      2.10312038	     89.74575214	     -2.88559554	     38.43428894	     40.01453531	     27.63363397	      0.00000000	      0.00000000	     89.50404165	    -16.83111125	     50.02090561	     36.17436750	     25.13474174	      0.00000000	      0.00000000
